PathFileType	4	(X/Y/Z)	P:\Projects\LMB_grand_challenge_database\project_only\opensim\experimental_data\SixthCompetition/DM_ngait_og7_new.trc
DataRate	CameraRate	NumFrames	NumMarkers	Units	OrigDataRate	OrigDataStartFrame	OrigNumFrames
120	120	5	68	mm	120	157	314
Frame#	Time	Sternum			Neck			R_Shoulder			L_Shoulder			Xiphoid			Thoracic			R_Asis			L_Asis			R_Psis			L_Psis			Lumbar			R_Elbow			R_ElbowMedial			R_ShoulderAnterior			R_ShoulderPosterior			R_Wrist			R_Radius			R_Ulna			L_Elbow			L_ElbowMedial			L_ShoulderAnterior			L_ShoulderPosterior			L_Wrist			L_Ulna			L_Radius			L_Thigh_Superior			L_Thigh_Inferior			L_Thigh_Lateral			L_Knee_Lateral			L_Knee_Medial			L_Patella			L_Shank_Superior			L_Shank_Inferior			L_Shank_Lateral			L_Ankle_Lateral			L_Ankle_Medial			R_Thigh_Superior			R_Thigh_Inferior			R_Thigh_Lateral			R_Knee_Lateral			R_Knee_Medial			R_Patella			R_Shank_Superior			R_Shank_Inferior			R_Shank_Lateral			R_Ankle_Lateral			RankleMedial			R_Heel			R_Toe			R_Midfoot_Medial			R_Midfoot_Lateral			R_Hindfoot			R_Midfoot_Superior			R_ToeMedial			R_ToeLateral			L_Heel			L_Toe			L_Midfoot_Medial			L_Midfoot_Lateral			L_Hindfoot			L_Midfoot_Superior			L_ToeMedial			L_ToeLateral			Oglobal			Sacral			Xglobal			Yglobal			Zglobal			
		X1	Y1	Z1	X2	Y2	Z2	X3	Y3	Z3	X4	Y4	Z4	X5	Y5	Z5	X6	Y6	Z6	X7	Y7	Z7	X8	Y8	Z8	X9	Y9	Z9	X10	Y10	Z10	X11	Y11	Z11	X12	Y12	Z12	X13	Y13	Z13	X14	Y14	Z14	X15	Y15	Z15	X16	Y16	Z16	X17	Y17	Z17	X18	Y18	Z18	X19	Y19	Z19	X20	Y20	Z20	X21	Y21	Z21	X22	Y22	Z22	X23	Y23	Z23	X24	Y24	Z24	X25	Y25	Z25	X26	Y26	Z26	X27	Y27	Z27	X28	Y28	Z28	X29	Y29	Z29	X30	Y30	Z30	X31	Y31	Z31	X32	Y32	Z32	X33	Y33	Z33	X34	Y34	Z34	X35	Y35	Z35	X36	Y36	Z36	X37	Y37	Z37	X38	Y38	Z38	X39	Y39	Z39	X40	Y40	Z40	X41	Y41	Z41	X42	Y42	Z42	X43	Y43	Z43	X44	Y44	Z44	X45	Y45	Z45	X46	Y46	Z46	X47	Y47	Z47	X48	Y48	Z48	X49	Y49	Z49	X50	Y50	Z50	X51	Y51	Z51	X52	Y52	Z52	X53	Y53	Z53	X54	Y54	Z54	X55	Y55	Z55	X56	Y56	Z56	X57	Y57	Z57	X58	Y58	Z58	X59	Y59	Z59	X60	Y60	Z60	X61	Y61	Z61	X62	Y62	Z62	X63	Y63	Z63	X64	Y64	Z64	X65	Y65	Z65	X66	Y66	Z66	X67	Y67	Z67	X68	Y68	Z68	

158	2.066667	315.328	1462.87	152.943	473.212	1379.65	147.932	411.834	1409.53	322.266	380.15	1413.8	-22.9965	493.256	1214.81	157.184	228.424	1270.73	150.935	406.607	979.923	292.252	429.387	989.946	15.6956	213.838	1023.26	170.023	219.133	1021.9	91.50749999999999	216.88	1072.26	134.689	375.555	1101.96	438.264	-0	0	0	-0	0	0	-0	0	0	474.522	838.797	429.321	472.298	848.347	385.099	428.821	839.141	442.325	380.564	1076.47	-116.57	-0	0	0	-0	0	0	-0	0	0	481.749	829.0549999999999	-103.24	437.102	829.915	-120.844	474.36	842.954	-57.728	376.075	808.453	-13.1472	421.813	596.588	49.2487	461.986	689.8819999999999	62.4523	-0	0	0	-0	0	0	463.662	511.765	115.851	391.79	440.927	49.3515	337.096	175.875	62.2486	396.405	299.426	128.597	-0	0	0	-0	0	0	348.914	798.5700000000001	323.628	416.586	592.123	306.434	491.627	673.708	271.781	-0	0	0	-0	0	0	-0	0	0	328.339	459.777	308.887	215.461	287.07	288.114	355.13	345.591	241.583	-0	0	0	-0	0	0	93.3043	225.495	212.329	314.347	36.3893	282.165	256.962	64.16719999999999	209.958	216.508	73.1562	319.662	134.347	138.669	282.063	250.242	171.375	260.809	291.496	44.3149	230.444	262.344	50.5405	316.475	252.11	60.4951	125.738	550.443	55.8897	104.574	474.576	34.1402	157.077	454.089	35.2312	44.4484	348.097	29.2499	61.6129	412.662	119.075	109.175	515.876	38.3123	150.465	509.793	38.0985	54.1736	-0	0	0	216.485	1022.58	130.765	-200	0	0	-0	0	200	-0	200	0	
159	2.075	323.293	1463.47	152.331	481.189	1379.86	148.109	418.81	1409.65	322.056	388.923	1414.99	-23.6826	500.677	1214.88	157.1	236.017	1271.29	150.242	413.87	980.038	291.998	436.745	990.441	15.6391	221.213	1023.91	169.79	226.402	1022.41	91.1921	224.295	1072.82	134.593	380.12	1102.38	438.179	-0	0	0	-0	0	0	-0	0	0	477.022	838.489	431.086	475.809	847.807	386.869	431.049	839.159	443.115	395.442	1077.41	-116.941	-0	0	0	-0	0	0	-0	0	0	502.411	832.542	-101.031	458.265	831.728	-118.728	494.118	846.121	-56.2578	386.533	806.528	-10.7159	424.93	596.053	49.1902	466.406	689.203	62.5412	-0	0	0	-0	0	0	466.016	510.889	116.058	392.546	440.771	48.8949	337.408	175.882	62.2617	397.783	299.122	128.257	-0	0	0	-0	0	0	355.772	799.447	324.335	428.591	594.1799999999999	306.623	502.193	676.901	271.523	-0	0	0	-0	0	0	-0	0	0	345.979	457.55	309.27	236.526	281.882	289.337	373.381	345.068	241.686	-0	0	0	-0	0	0	115.984	214.805	214.334	345.371	35.9264	282.833	286.096	60.3094	211.264	246.148	68.06319999999999	321.249	161.082	130.285	283.839	274.88	167.498	261.633	321.942	43.3091	231.51	292.855	48.5663	318.087	251.563	60.9646	124.609	550.475	55.7363	104.547	473.532	34.5823	159.269	454.514	33.8963	46.3798	347.889	28.1359	62.1603	412.666	118.949	109.176	515.8920000000001	38.1764	150.439	509.842	37.9742	54.1495	-0	0	0	223.808	1023.16	130.491	-200	0	0	-0	0	200	-0	200	0	
160	2.083333	331.302	1463.94	151.835	488.983	1379.94	148.183	426.033	1409.79	321.933	397.589	1415.52	-23.8016	508.286	1214.93	157.061	243.85	1271.79	149.485	420.945	980.645	291.924	444.416	990.6369999999999	15.4174	228.596	1024.5	169.225	234.007	1022.94	90.64409999999999	231.796	1073.39	133.905	384.698	1102.84	438.195	-0	0	0	-0	0	0	-0	0	0	479.562	838.14	432.872	479.212	847.52	388.857	433.551	838.825	444.187	410.322	1078.36	-117.211	-0	0	0	-0	0	0	-0	0	0	522.79	836.027	-99.14700000000001	478.962	833.871	-116.923	513.479	849.3920000000001	-54.3009	398.207	804.355	-6.87592	428.476	595.667	49.5539	471.642	688.7190000000001	63.3248	-0	0	0	-0	0	0	468.229	510.348	116.031	393.712	440.743	48.6084	337.735	175.957	62.308	399.214	298.891	127.834	-0	0	0	-0	0	0	363.819	800.026	324.239	440.827	596.293	306.58	512.471	679.933	271.094	-0	0	0	-0	0	0	-0	0	0	361.872	455.885	310.375	258.018	276.593	290.96	391.641	344.935	241.984	-0	0	0	-0	0	0	138.929	204.349	216.344	376.631	35.58	283.655	315.823	57.7079	211.732	276.803	63.9792	322.143	188.427	121.794	285.828	300.933	164.281	262.125	352.452	41.7394	232.501	323.933	46.0845	319.545	251.516	61.5029	124.24	550.527	55.5017	104.507	473.277	34.6776	159.88	454.696	33.5419	46.9213	347.938	27.9664	62.1984	412.769	118.962	109.184	515.875	38.0177	150.366	509.857	37.8733	54.1678	-0	0	0	231.301	1023.72	129.935	-200	0	0	-0	0	200	-0	200	0	
161	2.091667	339.319	1464.38	151.282	496.83	1380.03	148.238	433.231	1409.89	321.865	406.389	1415.89	-23.8372	515.718	1214.96	157.005	251.464	1272.3	148.807	427.815	980.655	291.841	452.016	991.151	15.3486	235.87	1025.07	168.717	241.449	1023.4	90.14400000000001	239.176	1073.91	133.478	389.215	1103.26	438.093	-0	0	0	-0	0	0	-0	0	0	482.063	837.712	434.492	482.69	847.169	390.593	435.849	838.571	445.013	425.154	1079.35	-117.291	-0	0	0	-0	0	0	-0	0	0	543.069	839.703	-96.851	499.403	836.7859999999999	-115.521	532.941	853.009	-52.3486	409.127	802.043	-2.56233	432.106	595.265	49.7128	476.554	688.273	64.1386	-0	0	0	-0	0	0	470.577	509.667	115.915	395.283	440.716	48.4596	338.033	176.269	62.3271	400.537	298.804	127.821	-0	0	0	-0	0	0	371.591	800.699	324.023	452.323	598.0309999999999	306.219	522.509	682.85	270.679	-0	0	0	-0	0	0	-0	0	0	377.31	454.255	310.932	280.034	271.009	292.249	410.241	344.518	242.088	-0	0	0	-0	0	0	162.735	193.643	218.279	408.082	35.6439	284.844	343.816	52.218	213.333	305.443	58.1222	323.99	216.359	113.63	287.625	324.391	159.045	262.617	383.038	40.506	233.565	355.138	43.8867	320.824	251.563	61.5177	124.296	550.634	55.2558	104.493	473.326	34.5717	159.83	454.698	33.5104	46.8791	347.874	27.9789	62.2263	412.854	118.919	109.207	515.879	37.9277	150.356	509.9	37.7232	54.1376	-0	0	0	238.66	1024.24	129.431	-200	0	0	-0	0	200	-0	200	0	
162	2.1	347.467	1464.83	150.693	504.53	1380.14	148.256	440.506	1409.9	321.665	414.976	1416.47	-24.0896	523.0940000000001	1214.99	156.722	258.941	1272.79	148.327	434.86	980.955	291.892	459.663	991.111	15.3691	243.257	1025.58	168.312	248.978	1023.8	89.6387	246.716	1074.36	132.999	393.979	1103.64	438.067	-0	0	0	-0	0	0	-0	0	0	484.877	837.497	436.145	486.123	846.5359999999999	391.957	438.318	838.3049999999999	445.661	439.83	1080.29	-117.419	-0	0	0	-0	0	0	-0	0	0	562.9640000000001	843.304	-94.6584	519.38	839.404	-113.666	552.202	856.826	-50.2944	400.102	811.904	-13.37	435.739	594.995	49.9803	481.407	687.7	64.51779999999999	-0	0	0	-0	0	0	472.832	509.149	115.817	397.328	440.682	48.6057	338.422	176.53	62.3942	401.687	298.678	127.712	-0	0	0	-0	0	0	378.771	801.174	324.362	463.412	599.835	305.858	532.388	685.504	270.223	-0	0	0	-0	0	0	-0	0	0	392.617	452.382	311.574	301.906	265.565	293.532	428.757	343.816	242.075	-0	0	0	-0	0	0	186.831	183.288	220.434	439.315	35.7907	286.081	375.162	51.702	214.72	336.625	55.0516	325.427	244.493	105.409	289.745	351.754	156.859	264.948	413.967	39.4073	235.103	386.102	42.0675	322.292	251.6	61.6163	124.32	550.711	55.1399	104.538	473.358	34.5153	159.769	454.701	33.5881	46.8208	347.931	28.0815	62.158	412.986	118.975	109.246	515.9349999999999	37.8321	150.333	509.934	37.5815	54.1582	-0	0	0	246.117	1024.69	128.976	-200	0	0	-0	0	200	-0	200	0	
